<svg width="154" height="27" viewBox="0 0 154 27" fill="none" xmlns="http://www.w3.org/2000/svg">
<path d="M0.0722656 19.5488C0.0722656 18.8574 0.277344 18.3652 0.6875 18.0723C1.09766 17.7676 1.49609 17.6152 1.88281 17.6152H3.97461C5.0293 17.6152 5.83203 18.1895 6.38281 19.3379C6.93359 20.4863 8.16992 21.0605 10.0918 21.0605L16.2441 21.1836C18.3066 21.1836 19.3379 20.5098 19.3379 19.1621C19.3379 18.1426 18.0781 17.3398 15.5586 16.7539C14.4336 16.4844 13.1914 16.2207 11.832 15.9629C10.4727 15.6934 9.11914 15.3594 7.77148 14.9609C6.43555 14.5625 5.20508 14.0938 4.08008 13.5547C2.95508 13.0156 2.04102 12.2773 1.33789 11.3398C0.646484 10.3906 0.300781 9.27734 0.300781 8C0.300781 5.64453 1.13867 3.83398 2.81445 2.56836C4.49023 1.29102 7.37305 0.652344 11.4629 0.652344L15.9277 0.757812C18.3301 0.757812 20.4922 1.37891 22.4141 2.62109C24.3477 3.85156 25.3145 5.39258 25.3145 7.24414C25.3145 7.93555 25.1094 8.43359 24.6992 8.73828C24.2891 9.04297 23.8965 9.19531 23.5215 9.19531H21.4297C20.375 9.19531 19.5723 8.62109 19.0215 7.47266C18.4707 6.3125 17.2344 5.73242 15.3125 5.73242L10.0215 5.62695C7.95898 5.62695 6.92773 6.30078 6.92773 7.64844C6.92773 8.38672 7.57812 8.99023 8.87891 9.45898C10.1914 9.92773 11.7734 10.3438 13.625 10.707C15.4883 11.0586 17.3574 11.4863 19.2324 11.9902C21.1074 12.4941 22.6953 13.3262 23.9961 14.4863C25.3086 15.6348 25.9648 17.0703 25.9648 18.793C25.9648 21.1484 25.1211 22.9648 23.4336 24.2422C21.7578 25.5078 18.8809 26.1406 14.8027 26.1406L9.47656 26.0352C7.07422 26.0352 4.90625 25.4199 2.97266 24.1895C1.03906 22.9473 0.0722656 21.4004 0.0722656 19.5488ZM28.6789 4.11523V2.46289C28.6789 1.98242 28.8371 1.58398 29.1535 1.26758C29.4699 0.951172 29.8684 0.792969 30.3488 0.792969H52.6555C53.1359 0.792969 53.5344 0.951172 53.8508 1.26758C54.1672 1.58398 54.3254 1.98242 54.3254 2.46289V4.11523C54.3254 4.5957 54.1672 4.99414 53.8508 5.31055C53.5344 5.61523 53.1359 5.76758 52.6555 5.76758H44.8156V24.3828C44.8156 24.8398 44.6516 25.2266 44.3234 25.543C44.007 25.8477 43.6203 26 43.1633 26H39.841C39.384 26 38.9914 25.8477 38.6633 25.543C38.3469 25.2266 38.1887 24.8398 38.1887 24.3828V5.76758H30.3488C29.8684 5.76758 29.4699 5.61523 29.1535 5.31055C28.8371 4.99414 28.6789 4.5957 28.6789 4.11523ZM81.7367 23.3984C79.3461 25.4961 75.8305 26.5449 71.1898 26.5449C66.5609 26.5449 63.0453 25.4961 60.643 23.3984C58.2406 21.2891 57.0395 17.9551 57.0395 13.3965C57.0395 8.83789 58.2406 5.50977 60.643 3.41211C63.0453 1.31445 66.5609 0.265625 71.1898 0.265625C75.8305 0.265625 79.3461 1.31445 81.7367 3.41211C84.1391 5.50977 85.3402 8.83789 85.3402 13.3965C85.3402 17.9551 84.1391 21.2891 81.7367 23.3984ZM76.9379 7.12109C75.7543 5.71484 73.8383 5.01172 71.1898 5.01172C68.5531 5.01172 66.6371 5.71484 65.4418 7.12109C64.2582 8.52734 63.6664 10.625 63.6664 13.4141C63.6664 16.1914 64.2582 18.2832 65.4418 19.6895C66.6371 21.084 68.5531 21.7812 71.1898 21.7812C73.8383 21.7812 75.7543 21.084 76.9379 19.6895C78.1215 18.2832 78.7133 16.1914 78.7133 13.4141C78.7133 10.625 78.1215 8.52734 76.9379 7.12109ZM116.935 25.2441C116.935 25.748 116.636 26 116.039 26H111.82C111.375 26 110.882 25.8418 110.343 25.5254C109.816 25.1973 109.412 24.8047 109.13 24.3477L106.142 19.6719C104.912 17.75 103.423 16.7891 101.677 16.7891H97.3883V24.3477C97.3883 24.8047 97.2242 25.1973 96.8961 25.5254C96.5797 25.8418 96.193 26 95.7359 26H92.4313C91.9742 26 91.5816 25.8418 91.2535 25.5254C90.9254 25.1973 90.7613 24.8047 90.7613 24.3477V2.46289C90.7613 2.00586 90.9195 1.61328 91.2359 1.28516C91.5523 0.957031 91.9391 0.792969 92.3961 0.792969H106.898C109.582 0.792969 111.779 1.51367 113.49 2.95508C115.213 4.39648 116.074 6.3418 116.074 8.79102C116.074 12.2012 113.865 14.3398 109.447 15.207C110.15 15.4648 110.8 15.9102 111.398 16.543C111.996 17.1641 112.681 18.0723 113.455 19.2676L116.654 24.3477C116.841 24.6758 116.935 24.9746 116.935 25.2441ZM97.3883 11.8145H104.877C106.084 11.8145 107.144 11.5742 108.058 11.0938C108.984 10.6133 109.447 9.8457 109.447 8.79102C109.447 7.73633 108.984 6.96875 108.058 6.48828C107.144 6.00781 106.084 5.76758 104.877 5.76758H97.3883V11.8145ZM121.671 24.3125V2.49805C121.671 2.01758 121.829 1.61328 122.145 1.28516C122.462 0.957031 122.848 0.792969 123.305 0.792969H130.46C130.917 0.792969 131.35 0.957031 131.761 1.28516C132.171 1.61328 132.446 2.00586 132.587 2.46289L137.772 17.4746L142.958 2.46289C143.098 2.00586 143.374 1.61328 143.784 1.28516C144.194 0.957031 144.628 0.792969 145.085 0.792969H152.239C152.696 0.792969 153.077 0.957031 153.382 1.28516C153.698 1.61328 153.856 2.01758 153.856 2.49805V24.3125C153.856 24.793 153.692 25.1973 153.364 25.5254C153.048 25.8418 152.661 26 152.204 26H149.04C148.583 26 148.19 25.8418 147.862 25.5254C147.546 25.1973 147.387 24.793 147.387 24.3125V7.13867L141.182 24.418C141.018 24.8516 140.731 25.2266 140.321 25.543C139.911 25.8477 139.477 26 139.02 26H136.507C136.05 26 135.616 25.8477 135.206 25.543C134.807 25.2266 134.52 24.8516 134.345 24.418L128.157 7.13867V24.3125C128.157 24.793 127.993 25.1973 127.665 25.5254C127.348 25.8418 126.962 26 126.505 26H123.341C122.884 26 122.491 25.8418 122.163 25.5254C121.835 25.1973 121.671 24.793 121.671 24.3125Z" fill="black"/>
</svg>
