<svg width="24" height="24" viewBox="0 0 24 24" fill="none" xmlns="http://www.w3.org/2000/svg">
<path d="M21.8906 3.77855H2.10938C0.946266 3.77855 0 4.72481 0 5.88792V18.1121C0 19.2752 0.946266 20.2215 2.10938 20.2215H21.8906C23.0537 20.2215 24 19.2752 24 18.1121V5.88792C24 4.72481 23.0537 3.77855 21.8906 3.77855ZM21.6153 5.1848L21.3338 5.41922L12.8369 12.4946C12.3519 12.8984 11.648 12.8984 11.1631 12.4946L2.6662 5.41922L2.38467 5.1848H21.6153ZM1.40625 6.20002L8.32931 11.9648L1.40625 16.5723V6.20002ZM21.8906 18.8152H2.10938C1.76962 18.8152 1.48547 18.573 1.42036 18.2522L9.45684 12.9037L10.2633 13.5752C10.7664 13.9942 11.3833 14.2037 12 14.2037C12.6168 14.2037 13.2336 13.9942 13.7368 13.5752L14.5433 12.9037L22.5797 18.2521C22.5145 18.573 22.2304 18.8152 21.8906 18.8152ZM22.5938 16.5723L15.6707 11.9649L22.5938 6.20002V16.5723Z" fill="#7C7C7C"/>
</svg>
