<svg width="93" height="19" viewBox="0 0 93 19" fill="none" xmlns="http://www.w3.org/2000/svg">
<path d="M22.0499 15C21.9433 15 21.8526 14.968 21.7779 14.904C21.7139 14.8293 21.6819 14.7387 21.6819 14.632V4.184C21.6819 4.06667 21.7139 3.976 21.7779 3.912C21.8526 3.83733 21.9433 3.8 22.0499 3.8H28.5779C28.6953 3.8 28.7859 3.83733 28.8499 3.912C28.9246 3.976 28.9619 4.06667 28.9619 4.184V4.824C28.9619 4.93067 28.9246 5.02133 28.8499 5.096C28.7859 5.16 28.6953 5.192 28.5779 5.192H23.2339V8.92H28.2579C28.3753 8.92 28.4659 8.95733 28.5299 9.032C28.6046 9.096 28.6419 9.18667 28.6419 9.304V9.944C28.6419 10.0507 28.6046 10.1413 28.5299 10.216C28.4553 10.28 28.3646 10.312 28.2579 10.312H23.2339V14.632C23.2339 14.7387 23.1966 14.8293 23.1219 14.904C23.0473 14.968 22.9566 15 22.8499 15H22.0499ZM32.6689 15.16C32.1463 15.16 31.6609 15.0533 31.2129 14.84C30.7649 14.6267 30.4076 14.3387 30.1409 13.976C29.8849 13.6027 29.7569 13.192 29.7569 12.744C29.7569 12.04 30.0449 11.464 30.6209 11.016C31.2076 10.5573 31.9969 10.2587 32.9889 10.12L35.3729 9.784V9.32C35.3729 8.232 34.7489 7.688 33.5009 7.688C33.0316 7.688 32.6476 7.78933 32.3489 7.992C32.0503 8.184 31.8263 8.41333 31.6769 8.68C31.6449 8.776 31.6023 8.84533 31.5489 8.888C31.5063 8.93067 31.4423 8.952 31.3569 8.952H30.6689C30.5729 8.952 30.4876 8.92 30.4129 8.856C30.3489 8.78133 30.3169 8.696 30.3169 8.6C30.3276 8.344 30.4449 8.056 30.6689 7.736C30.9036 7.40533 31.2609 7.12267 31.7409 6.888C32.2209 6.64267 32.8129 6.52 33.5169 6.52C34.7116 6.52 35.5703 6.80267 36.0929 7.368C36.6156 7.92267 36.8769 8.616 36.8769 9.448V14.632C36.8769 14.7387 36.8396 14.8293 36.7649 14.904C36.7009 14.968 36.6156 15 36.5089 15H35.7729C35.6663 15 35.5756 14.968 35.5009 14.904C35.4369 14.8293 35.4049 14.7387 35.4049 14.632V13.944C35.1703 14.2853 34.8289 14.5733 34.3809 14.808C33.9329 15.0427 33.3623 15.16 32.6689 15.16ZM33.0049 13.96C33.6983 13.96 34.2636 13.736 34.7009 13.288C35.1489 12.8293 35.3729 12.1733 35.3729 11.32V10.872L33.5169 11.144C32.7596 11.2507 32.1889 11.432 31.8049 11.688C31.4209 11.9333 31.2289 12.248 31.2289 12.632C31.2289 13.0587 31.4049 13.3893 31.7569 13.624C32.1089 13.848 32.5249 13.96 33.0049 13.96ZM42.5371 15.16C41.3957 15.16 40.4997 14.84 39.8491 14.2C39.2091 13.5493 38.8677 12.6427 38.8251 11.48L38.8091 10.84L38.8251 10.2C38.8677 9.03733 39.2091 8.136 39.8491 7.496C40.4997 6.84533 41.3957 6.52 42.5371 6.52C43.3051 6.52 43.9557 6.65867 44.4891 6.936C45.0224 7.21333 45.4171 7.55467 45.6731 7.96C45.9397 8.36533 46.0837 8.77067 46.1051 9.176C46.1157 9.28267 46.0837 9.368 46.0091 9.432C45.9344 9.496 45.8437 9.528 45.7371 9.528H44.9691C44.8624 9.528 44.7824 9.50667 44.7291 9.464C44.6757 9.42133 44.6224 9.336 44.5691 9.208C44.3877 8.696 44.1317 8.33333 43.8011 8.12C43.4704 7.896 43.0544 7.784 42.5531 7.784C41.8917 7.784 41.3637 7.992 40.9691 8.408C40.5851 8.81333 40.3771 9.43733 40.3451 10.28L40.3291 10.856L40.3451 11.4C40.3771 12.2533 40.5851 12.8827 40.9691 13.288C41.3531 13.6933 41.8811 13.896 42.5531 13.896C43.0544 13.896 43.4704 13.7893 43.8011 13.576C44.1317 13.352 44.3877 12.984 44.5691 12.472C44.6224 12.344 44.6757 12.2587 44.7291 12.216C44.7824 12.1627 44.8624 12.136 44.9691 12.136H45.7371C45.8437 12.136 45.9344 12.1733 46.0091 12.248C46.0837 12.312 46.1157 12.3973 46.1051 12.504C46.0837 12.8987 45.9397 13.304 45.6731 13.72C45.4171 14.1253 45.0224 14.4667 44.4891 14.744C43.9664 15.0213 43.3157 15.16 42.5371 15.16ZM51.3332 15.16C50.2345 15.16 49.3545 14.824 48.6932 14.152C48.0425 13.4693 47.6852 12.5413 47.6212 11.368L47.6052 10.824L47.6212 10.296C47.6959 9.144 48.0585 8.22667 48.7092 7.544C49.3705 6.86133 50.2399 6.52 51.3172 6.52C52.5012 6.52 53.4185 6.89867 54.0692 7.656C54.7199 8.40267 55.0452 9.416 55.0452 10.696V10.968C55.0452 11.0747 55.0079 11.1653 54.9332 11.24C54.8692 11.304 54.7839 11.336 54.6772 11.336H49.1412V11.48C49.1732 12.1733 49.3812 12.7653 49.7652 13.256C50.1599 13.736 50.6772 13.976 51.3172 13.976C51.8079 13.976 52.2079 13.88 52.5172 13.688C52.8372 13.4853 53.0719 13.2773 53.2212 13.064C53.3172 12.936 53.3865 12.8613 53.4292 12.84C53.4825 12.808 53.5732 12.792 53.7012 12.792H54.4852C54.5812 12.792 54.6612 12.8187 54.7252 12.872C54.7892 12.9253 54.8212 13 54.8212 13.096C54.8212 13.3307 54.6719 13.6133 54.3732 13.944C54.0852 14.2747 53.6745 14.5627 53.1412 14.808C52.6185 15.0427 52.0159 15.16 51.3332 15.16ZM53.5252 10.232V10.184C53.5252 9.448 53.3225 8.85067 52.9172 8.392C52.5225 7.92267 51.9892 7.688 51.3172 7.688C50.6452 7.688 50.1119 7.92267 49.7172 8.392C49.3332 8.85067 49.1412 9.448 49.1412 10.184V10.232H53.5252ZM61.0703 15.16C59.9183 15.16 59.0437 14.76 58.4463 13.96V14.632C58.4463 14.7387 58.409 14.8293 58.3343 14.904C58.2703 14.968 58.185 15 58.0783 15H57.3423C57.2357 15 57.145 14.968 57.0703 14.904C57.0063 14.8293 56.9743 14.7387 56.9743 14.632V4.008C56.9743 3.90133 57.0063 3.816 57.0703 3.752C57.145 3.67733 57.2357 3.64 57.3423 3.64H58.1263C58.233 3.64 58.3183 3.67733 58.3823 3.752C58.4463 3.816 58.4783 3.90133 58.4783 4.008V7.688C59.1077 6.90933 59.9717 6.52 61.0703 6.52C62.1797 6.52 63.017 6.888 63.5823 7.624C64.1477 8.34933 64.4517 9.26133 64.4943 10.36C64.505 10.4773 64.5103 10.6373 64.5103 10.84C64.5103 11.0427 64.505 11.2027 64.4943 11.32C64.4517 12.4293 64.1477 13.3467 63.5823 14.072C63.017 14.7973 62.1797 15.16 61.0703 15.16ZM60.7343 13.864C61.4917 13.864 62.041 13.6293 62.3823 13.16C62.7343 12.6907 62.9263 12.072 62.9583 11.304C62.969 11.1973 62.9743 11.0427 62.9743 10.84C62.9743 8.824 62.2277 7.816 60.7343 7.816C60.0197 7.816 59.4703 8.05067 59.0863 8.52C58.7023 8.98933 58.4997 9.53867 58.4783 10.168L58.4623 10.792L58.4783 11.4C58.5103 12.072 58.7077 12.6533 59.0703 13.144C59.4437 13.624 59.9983 13.864 60.7343 13.864ZM69.8819 15.16C68.7086 15.16 67.7966 14.8293 67.1459 14.168C66.5059 13.5067 66.1646 12.6267 66.1219 11.528L66.1059 10.84L66.1219 10.152C66.1646 9.064 66.5113 8.18933 67.1619 7.528C67.8126 6.856 68.7193 6.52 69.8819 6.52C71.0446 6.52 71.9513 6.856 72.6019 7.528C73.2526 8.18933 73.5993 9.064 73.6419 10.152C73.6526 10.2693 73.6579 10.4987 73.6579 10.84C73.6579 11.1813 73.6526 11.4107 73.6419 11.528C73.5993 12.6267 73.2526 13.5067 72.6019 14.168C71.9619 14.8293 71.0553 15.16 69.8819 15.16ZM69.8819 13.928C70.5539 13.928 71.0819 13.7147 71.4659 13.288C71.8606 12.8613 72.0739 12.248 72.1059 11.448C72.1166 11.3413 72.1219 11.1387 72.1219 10.84C72.1219 10.5413 72.1166 10.3387 72.1059 10.232C72.0739 9.432 71.8606 8.81867 71.4659 8.392C71.0819 7.96533 70.5539 7.752 69.8819 7.752C69.2099 7.752 68.6766 7.96533 68.2819 8.392C67.8873 8.81867 67.6793 9.432 67.6579 10.232L67.6419 10.84L67.6579 11.448C67.6793 12.248 67.8873 12.8613 68.2819 13.288C68.6766 13.7147 69.2099 13.928 69.8819 13.928ZM79.0694 15.16C77.8961 15.16 76.9841 14.8293 76.3334 14.168C75.6934 13.5067 75.3521 12.6267 75.3094 11.528L75.2934 10.84L75.3094 10.152C75.3521 9.064 75.6988 8.18933 76.3494 7.528C77.0001 6.856 77.9068 6.52 79.0694 6.52C80.2321 6.52 81.1388 6.856 81.7894 7.528C82.4401 8.18933 82.7868 9.064 82.8294 10.152C82.8401 10.2693 82.8454 10.4987 82.8454 10.84C82.8454 11.1813 82.8401 11.4107 82.8294 11.528C82.7868 12.6267 82.4401 13.5067 81.7894 14.168C81.1494 14.8293 80.2428 15.16 79.0694 15.16ZM79.0694 13.928C79.7414 13.928 80.2694 13.7147 80.6534 13.288C81.0481 12.8613 81.2614 12.248 81.2934 11.448C81.3041 11.3413 81.3094 11.1387 81.3094 10.84C81.3094 10.5413 81.3041 10.3387 81.2934 10.232C81.2614 9.432 81.0481 8.81867 80.6534 8.392C80.2694 7.96533 79.7414 7.752 79.0694 7.752C78.3974 7.752 77.8641 7.96533 77.4694 8.392C77.0748 8.81867 76.8668 9.432 76.8454 10.232L76.8294 10.84L76.8454 11.448C76.8668 12.248 77.0748 12.8613 77.4694 13.288C77.8641 13.7147 78.3974 13.928 79.0694 13.928ZM85.2329 15C85.1263 15 85.0356 14.968 84.9609 14.904C84.8969 14.8293 84.8649 14.7387 84.8649 14.632V4.008C84.8649 3.90133 84.8969 3.816 84.9609 3.752C85.0356 3.67733 85.1263 3.64 85.2329 3.64H85.9849C86.0916 3.64 86.1769 3.67733 86.2409 3.752C86.3156 3.816 86.3529 3.90133 86.3529 4.008V9.576L89.5049 6.952C89.5369 6.93067 89.5903 6.888 89.6649 6.824C89.7396 6.77067 89.8089 6.73333 89.8729 6.712C89.9476 6.69067 90.0383 6.68 90.1449 6.68H90.9929C91.0889 6.68 91.1689 6.712 91.2329 6.776C91.2969 6.84 91.3289 6.92 91.3289 7.016C91.3289 7.13333 91.2649 7.23467 91.1369 7.32L87.4409 10.392L91.5369 14.376C91.6649 14.4827 91.7289 14.5787 91.7289 14.664C91.7289 14.76 91.6969 14.84 91.6329 14.904C91.5689 14.968 91.4889 15 91.3929 15H90.5609C90.4009 15 90.2836 14.984 90.2089 14.952C90.1449 14.92 90.0489 14.8453 89.9209 14.728L86.3529 11.32V14.632C86.3529 14.7387 86.3156 14.8293 86.2409 14.904C86.1769 14.968 86.0916 15 85.9849 15H85.2329Z" fill="#2096F3"/>
<path d="M0 8.83333V12.1667H2.45455V18H5.72727V12.1667H8.18182L9 8.83333H5.72727V7.16667C5.72727 6.94565 5.81347 6.73369 5.96691 6.57741C6.12035 6.42113 6.32846 6.33333 6.54545 6.33333H9V3H6.54545C5.46048 3 4.41994 3.43899 3.65275 4.22039C2.88555 5.00179 2.45455 6.0616 2.45455 7.16667V8.83333H0Z" fill="#2096F3"/>
</svg>
