<svg width="80" height="19" viewBox="0 0 80 19" fill="none" xmlns="http://www.w3.org/2000/svg">
<path d="M32.7463 15.16C31.349 15.16 30.261 14.7813 29.4823 14.024C28.7143 13.256 28.3037 12.2107 28.2503 10.888C28.2397 10.568 28.2343 10.0667 28.2343 9.384C28.2343 8.69067 28.2397 8.18933 28.2503 7.88C28.3037 6.568 28.7197 5.53333 29.4983 4.776C30.277 4.01867 31.3597 3.64 32.7463 3.64C33.685 3.64 34.4797 3.81067 35.1303 4.152C35.7917 4.48267 36.2877 4.888 36.6183 5.368C36.949 5.848 37.125 6.296 37.1463 6.712V6.744C37.1463 6.82933 37.1143 6.89867 37.0503 6.952C36.9863 7.00533 36.9063 7.032 36.8103 7.032H35.8663C35.7597 7.032 35.6797 7.016 35.6263 6.984C35.5837 6.94133 35.541 6.86133 35.4983 6.744C35.3383 6.264 35.029 5.85333 34.5703 5.512C34.1223 5.17067 33.5143 5 32.7463 5C31.861 5 31.1677 5.24 30.6663 5.72C30.165 6.2 29.893 6.94667 29.8503 7.96C29.8397 8.26933 29.8343 8.744 29.8343 9.384C29.8343 10.0133 29.8397 10.488 29.8503 10.808C29.893 11.832 30.165 12.5893 30.6663 13.08C31.1677 13.56 31.861 13.8 32.7463 13.8C33.6423 13.8 34.357 13.5547 34.8903 13.064C35.4237 12.5733 35.6903 11.8373 35.6903 10.856V10.184H33.2903C33.1837 10.184 33.093 10.152 33.0183 10.088C32.9543 10.0133 32.9223 9.91733 32.9223 9.8V9.288C32.9223 9.18133 32.9543 9.09067 33.0183 9.016C33.093 8.94133 33.1837 8.904 33.2903 8.904H36.9063C37.013 8.904 37.0983 8.94133 37.1623 9.016C37.237 9.08 37.2743 9.17067 37.2743 9.288V10.824C37.2743 11.6987 37.093 12.4613 36.7303 13.112C36.3677 13.7627 35.845 14.2693 35.1623 14.632C34.4797 14.984 33.6743 15.16 32.7463 15.16ZM42.7569 15.16C41.5836 15.16 40.6716 14.8293 40.0209 14.168C39.3809 13.5067 39.0396 12.6267 38.9969 11.528L38.9809 10.84L38.9969 10.152C39.0396 9.064 39.3863 8.18933 40.0369 7.528C40.6876 6.856 41.5943 6.52 42.7569 6.52C43.9196 6.52 44.8263 6.856 45.4769 7.528C46.1276 8.18933 46.4743 9.064 46.5169 10.152C46.5276 10.2693 46.5329 10.4987 46.5329 10.84C46.5329 11.1813 46.5276 11.4107 46.5169 11.528C46.4743 12.6267 46.1276 13.5067 45.4769 14.168C44.8369 14.8293 43.9303 15.16 42.7569 15.16ZM42.7569 13.928C43.4289 13.928 43.9569 13.7147 44.3409 13.288C44.7356 12.8613 44.9489 12.248 44.9809 11.448C44.9916 11.3413 44.9969 11.1387 44.9969 10.84C44.9969 10.5413 44.9916 10.3387 44.9809 10.232C44.9489 9.432 44.7356 8.81867 44.3409 8.392C43.9569 7.96533 43.4289 7.752 42.7569 7.752C42.0849 7.752 41.5516 7.96533 41.1569 8.392C40.7623 8.81867 40.5543 9.432 40.5329 10.232L40.5169 10.84L40.5329 11.448C40.5543 12.248 40.7623 12.8613 41.1569 13.288C41.5516 13.7147 42.0849 13.928 42.7569 13.928ZM51.9444 15.16C50.7711 15.16 49.8591 14.8293 49.2084 14.168C48.5684 13.5067 48.2271 12.6267 48.1844 11.528L48.1684 10.84L48.1844 10.152C48.2271 9.064 48.5738 8.18933 49.2244 7.528C49.8751 6.856 50.7818 6.52 51.9444 6.52C53.1071 6.52 54.0138 6.856 54.6644 7.528C55.3151 8.18933 55.6618 9.064 55.7044 10.152C55.7151 10.2693 55.7204 10.4987 55.7204 10.84C55.7204 11.1813 55.7151 11.4107 55.7044 11.528C55.6618 12.6267 55.3151 13.5067 54.6644 14.168C54.0244 14.8293 53.1178 15.16 51.9444 15.16ZM51.9444 13.928C52.6164 13.928 53.1444 13.7147 53.5284 13.288C53.9231 12.8613 54.1364 12.248 54.1684 11.448C54.1791 11.3413 54.1844 11.1387 54.1844 10.84C54.1844 10.5413 54.1791 10.3387 54.1684 10.232C54.1364 9.432 53.9231 8.81867 53.5284 8.392C53.1444 7.96533 52.6164 7.752 51.9444 7.752C51.2724 7.752 50.7391 7.96533 50.3444 8.392C49.9498 8.81867 49.7418 9.432 49.7204 10.232L49.7044 10.84L49.7204 11.448C49.7418 12.248 49.9498 12.8613 50.3444 13.288C50.7391 13.7147 51.2724 13.928 51.9444 13.928ZM61.1319 18.52C60.2573 18.52 59.5533 18.3707 59.0199 18.072C58.4866 17.784 58.1079 17.4533 57.8839 17.08C57.6599 16.7067 57.5373 16.3707 57.5159 16.072C57.5053 15.9653 57.5373 15.8747 57.6119 15.8C57.6973 15.7253 57.7879 15.688 57.8839 15.688H58.6519C58.7479 15.688 58.8279 15.7093 58.8919 15.752C58.9559 15.8053 59.0093 15.896 59.0519 16.024C59.1799 16.3653 59.3879 16.6587 59.6759 16.904C59.9746 17.16 60.4333 17.288 61.0519 17.288C61.8413 17.288 62.4226 17.1173 62.7959 16.776C63.1693 16.4453 63.3559 15.8533 63.3559 15V13.912C63.0786 14.264 62.7266 14.5467 62.2999 14.76C61.8733 14.9627 61.3666 15.064 60.7799 15.064C59.6493 15.064 58.8013 14.7067 58.2359 13.992C57.6813 13.2667 57.3879 12.3493 57.3559 11.24L57.3399 10.792L57.3559 10.36C57.3879 9.26133 57.6866 8.34933 58.2519 7.624C58.8173 6.888 59.6599 6.52 60.7799 6.52C61.8999 6.52 62.7746 6.93067 63.4039 7.752V7.064C63.4039 6.95733 63.4359 6.86667 63.4999 6.792C63.5746 6.71733 63.6653 6.68 63.7719 6.68H64.5079C64.6146 6.68 64.7053 6.71733 64.7799 6.792C64.8546 6.86667 64.8919 6.95733 64.8919 7.064V14.824C64.8919 17.288 63.6386 18.52 61.1319 18.52ZM61.0999 13.784C61.8253 13.784 62.3746 13.544 62.7479 13.064C63.1213 12.584 63.3239 12.0133 63.3559 11.352C63.3666 11.256 63.3719 11.0693 63.3719 10.792C63.3719 10.5253 63.3666 10.344 63.3559 10.248C63.3239 9.58667 63.1213 9.016 62.7479 8.536C62.3853 8.056 61.8359 7.816 61.0999 7.816C60.3426 7.816 59.7933 8.05067 59.4519 8.52C59.1106 8.98933 58.9239 9.608 58.8919 10.376L58.8759 10.792L58.8919 11.224C58.9239 11.9813 59.1106 12.6 59.4519 13.08C59.7933 13.5493 60.3426 13.784 61.0999 13.784ZM67.6548 15C67.5482 15 67.4575 14.968 67.3828 14.904C67.3188 14.8293 67.2868 14.7387 67.2868 14.632V4.008C67.2868 3.90133 67.3188 3.816 67.3828 3.752C67.4575 3.67733 67.5482 3.64 67.6548 3.64H68.4068C68.5135 3.64 68.5988 3.67733 68.6628 3.752C68.7375 3.816 68.7748 3.90133 68.7748 4.008V14.632C68.7748 14.7387 68.7375 14.8293 68.6628 14.904C68.5988 14.968 68.5135 15 68.4068 15H67.6548ZM74.4894 15.16C73.3908 15.16 72.5108 14.824 71.8494 14.152C71.1988 13.4693 70.8414 12.5413 70.7774 11.368L70.7614 10.824L70.7774 10.296C70.8521 9.144 71.2148 8.22667 71.8654 7.544C72.5268 6.86133 73.3961 6.52 74.4734 6.52C75.6574 6.52 76.5748 6.89867 77.2254 7.656C77.8761 8.40267 78.2014 9.416 78.2014 10.696V10.968C78.2014 11.0747 78.1641 11.1653 78.0894 11.24C78.0254 11.304 77.9401 11.336 77.8334 11.336H72.2974V11.48C72.3294 12.1733 72.5374 12.7653 72.9214 13.256C73.3161 13.736 73.8334 13.976 74.4734 13.976C74.9641 13.976 75.3641 13.88 75.6734 13.688C75.9934 13.4853 76.2281 13.2773 76.3774 13.064C76.4734 12.936 76.5428 12.8613 76.5854 12.84C76.6388 12.808 76.7294 12.792 76.8574 12.792H77.6414C77.7374 12.792 77.8174 12.8187 77.8814 12.872C77.9454 12.9253 77.9774 13 77.9774 13.096C77.9774 13.3307 77.8281 13.6133 77.5294 13.944C77.2414 14.2747 76.8308 14.5627 76.2974 14.808C75.7748 15.0427 75.1721 15.16 74.4894 15.16ZM76.6814 10.232V10.184C76.6814 9.448 76.4788 8.85067 76.0734 8.392C75.6788 7.92267 75.1454 7.688 74.4734 7.688C73.8014 7.688 73.2681 7.92267 72.8734 8.392C72.4894 8.85067 72.2974 9.448 72.2974 10.184V10.232H76.6814Z" fill="#F44336"/>
<path d="M13.5018 4.63959C12.2816 3.61485 10.7483 3.03707 9.1553 3.00172C7.56229 2.96637 6.00488 3.47557 4.74044 4.44517C3.476 5.41477 2.5802 6.78675 2.20105 8.33439C1.82191 9.88203 1.98213 11.5127 2.65522 12.957C3.32831 14.4012 4.474 15.5726 5.90297 16.2776C7.33194 16.9826 8.95866 17.1789 10.5143 16.8342C12.07 16.4895 13.4615 15.6244 14.4589 14.3818C15.4564 13.1392 16 11.5934 16 10H9.77778" stroke="#F44336" stroke-width="2.75" stroke-linecap="round" stroke-linejoin="round"/>
</svg>
