<svg width="27" height="27" viewBox="0 0 27 27" fill="none" xmlns="http://www.w3.org/2000/svg">
<path d="M7.74142 1.56996C7.67986 1.6083 7.57038 1.69348 7.49666 1.75243C6.13522 2.81533 4.38604 4.54148 3.94638 6.54202C3.21229 9.89225 6.49981 15.4874 7.52517 17.1226C8.55105 18.7575 12.1563 24.1535 15.4889 24.9501C16.0442 25.0842 16.6598 25.1249 17.3181 25.0705C18.8378 24.945 20.3428 24.3348 21.3242 23.8519C21.3242 23.8519 21.5345 23.7521 21.6193 23.6997C21.8336 23.5648 22.0354 23.3381 22.236 23.0067C22.3384 22.8374 22.4018 22.647 22.4365 22.5175C22.4752 22.3731 22.5357 22.0895 22.5091 21.8096C22.4724 21.4266 22.3902 21.1375 22.2569 20.9223C22.1577 20.7644 19.8009 17.6281 19.7855 17.6098L19.7667 17.5889C19.6383 17.4214 19.4956 17.2792 19.342 17.166C18.9395 16.8693 18.4435 16.7289 17.9449 16.7695C17.6279 16.7956 17.3218 16.897 17.0627 17.0602L15.7435 17.8828C15.6198 17.9602 15.4125 18.0192 15.3453 18.0176C15.2756 18.0121 15.2285 18.0031 15.1986 17.9959L10.0316 9.75854C10.0193 9.73844 10.0151 9.72097 10.0135 9.70903C10.0194 9.70001 10.0259 9.69245 10.0297 9.6864C10.0686 9.64199 10.2309 9.51129 10.4226 9.3902L11.7312 8.56385C12.4226 8.13053 12.7963 7.26856 12.6424 6.47696C12.5875 6.19477 12.4708 5.96365 12.4172 5.85511L12.3905 5.79489C12.3768 5.76689 10.6038 2.33781 10.5189 2.20409C10.3091 1.86977 9.90695 1.61168 9.28993 1.41451C8.947 1.30493 8.48395 1.29052 8.18895 1.37993C7.99911 1.43827 7.85199 1.50055 7.74142 1.56996ZM9.42362 2.87096C9.52605 3.05139 11.141 6.16754 11.2255 6.33078L11.2824 6.45523C11.3063 6.50277 11.3626 6.61467 11.384 6.72298C11.4389 7.00651 11.3035 7.32042 11.0483 7.48064L9.73806 8.30789C9.58487 8.40436 9.20811 8.65536 9.02014 8.89814C8.89537 9.06014 8.81693 9.20934 8.7671 9.39363C8.68508 9.74925 8.74643 10.1176 8.94319 10.4361L14.1622 18.7564C14.3609 19.0727 14.7244 19.2541 15.243 19.2954C15.6439 19.3272 16.1351 19.1493 16.4217 18.9705L17.7431 18.1463C17.8314 18.0908 17.9378 18.0565 18.0501 18.0468C18.2372 18.0315 18.4312 18.0866 18.5818 18.1977C18.6697 18.2623 18.7343 18.3482 18.7554 18.3764C18.7757 18.4031 18.7925 18.423 18.8079 18.4395C19.0345 18.7377 21.0594 21.441 21.167 21.5955C21.1672 21.5964 21.2096 21.6807 21.2339 21.9317C21.2372 21.9671 21.2308 22.0671 21.1991 22.1855C21.1762 22.2709 21.1518 22.324 21.1402 22.3426C21.0166 22.5464 20.9426 22.6097 20.9421 22.6114C20.8914 22.6407 20.7896 22.6872 20.7724 22.6954C19.8766 23.1359 18.5323 23.6843 17.2125 23.7932C16.6907 23.8364 16.2123 23.8064 15.7888 23.704C13.5121 23.1598 10.499 19.4511 8.61104 16.4413C6.72252 13.4318 4.69632 9.10449 5.198 6.81637C5.55872 5.16653 7.08841 3.69683 8.27108 2.77305L8.31644 2.73745C8.3429 2.71624 8.39123 2.67613 8.41513 2.65954C8.45392 2.63854 8.50775 2.62246 8.55065 2.6092C8.61304 2.59585 8.79402 2.60189 8.89902 2.63578C9.25977 2.75145 9.41133 2.86236 9.42362 2.87096Z" fill="#7C7C7C"/>
</svg>
